<?xml version="1.0" encoding="UTF-8"?> <svg xmlns="http://www.w3.org/2000/svg" width="252" height="399" viewBox="0 0 252 399" fill="none"><path d="M126 364C56.9275 364 1 308.05 1 238.949V101H251V238.949C251 308.05 194.988 364 126 364Z" fill="white" stroke="black" stroke-miterlimit="10"></path><path d="M132.419 358C140.963 357.578 180.665 354.792 212.579 321.442C244.157 288.43 245.832 248.918 246 240.137V236H132C132.084 276.695 132.251 317.39 132.419 358Z" fill="white" stroke="black" stroke-width="2" stroke-miterlimit="10"></path><path d="M127 102V365" stroke="black" stroke-miterlimit="10"></path><path d="M250 232H2" stroke="black" stroke-miterlimit="10"></path><path d="M120.581 358C112.037 357.578 72.3344 354.792 40.421 321.442C8.84269 288.43 7.16752 248.918 7 240.137V236H121C120.832 276.695 120.665 317.39 120.581 358Z" fill="black"></path><path d="M120.581 358C112.037 357.578 72.3344 354.792 40.421 321.442C8.84269 288.43 7.16752 248.918 7 240.137V236H121C120.832 276.695 120.665 317.39 120.581 358Z" stroke="black" stroke-width="2" stroke-miterlimit="10"></path><path d="M246 108H132V227H246V108Z" fill="black"></path><path d="M246 108H132V227H246V108Z" stroke="black" stroke-width="2" stroke-miterlimit="10"></path><path d="M186.5 267C192.299 267 197 264.761 197 262C197 259.239 192.299 257 186.5 257C180.701 257 176 259.239 176 262C176 264.761 180.701 267 186.5 267Z" fill="black"></path><path d="M186.5 311C192.299 311 197 308.314 197 305C197 301.686 192.299 299 186.5 299C180.701 299 176 301.686 176 305C176 308.314 180.701 311 186.5 311Z" fill="black"></path><path d="M172.13 302.746C174.893 301.151 174.921 296.027 172.193 291.302C169.465 286.577 165.013 284.04 162.25 285.635C159.487 287.23 159.459 292.354 162.187 297.079C164.915 301.804 169.367 304.342 172.13 302.746Z" fill="black"></path><path d="M209.846 297.218C212.574 292.493 212.546 287.37 209.783 285.774C207.02 284.179 202.568 286.716 199.84 291.441C197.112 296.166 197.14 301.29 199.903 302.885C202.666 304.481 207.118 301.943 209.846 297.218Z" fill="black"></path><path d="M172.314 275.584C175.042 270.859 175.014 265.735 172.251 264.14C169.488 262.545 165.037 265.082 162.308 269.807C159.58 274.532 159.608 279.656 162.371 281.251C165.134 282.846 169.586 280.309 172.314 275.584Z" fill="black"></path><path d="M209.575 281.092C212.338 279.497 212.366 274.373 209.638 269.648C206.91 264.923 202.458 262.386 199.695 263.981C196.932 265.576 196.904 270.7 199.632 275.425C202.36 280.15 206.812 282.688 209.575 281.092Z" fill="black"></path><path d="M121 108H7V227H121V108Z" fill="white" stroke="black" stroke-width="2" stroke-miterlimit="10"></path><path d="M92 168L94 167L92 166V168Z" fill="black"></path><path fill-rule="evenodd" clip-rule="evenodd" d="M213.311 175.767C211.794 176.266 210.95 177.845 211.456 179.257C211.962 180.669 213.48 181.334 214.998 180.835C216.516 180.337 217.359 178.758 216.853 177.346C216.431 175.851 214.829 175.186 213.311 175.767ZM164.74 161.644C165.162 161.644 165.331 161.81 165.331 162.225V180.254C165.331 180.669 165.162 180.835 164.74 180.835H160.861C160.44 180.835 160.271 180.669 160.271 180.254V162.225C160.271 161.81 160.44 161.644 160.861 161.644H164.74ZM180.509 161.56C184.725 161.56 186.243 164.385 186.243 168.29V180.254C186.243 180.669 186.074 180.835 185.653 180.835H181.774C181.352 180.835 181.184 180.669 181.184 180.254V167.709C181.184 166.379 180.172 165.964 179.075 165.964H178.569C176.883 165.964 175.702 166.628 175.281 167.376V180.337C175.281 180.752 175.112 180.919 174.69 180.919H170.812C170.39 180.919 170.221 180.752 170.221 180.337V162.308C170.221 161.893 170.39 161.727 170.812 161.727H174.69C175.112 161.727 175.281 161.893 175.281 162.308V163.97C175.871 162.973 177.305 161.56 180.256 161.56H180.509ZM195.35 154C195.772 154 195.94 154.166 195.94 154.582V167.875L201.506 162.142C201.759 161.893 202.096 161.644 202.434 161.644H206.481C206.987 161.644 207.493 162.225 206.734 162.973L200.916 169.121L207.662 179.838C207.915 180.254 207.83 180.835 207.156 180.835H203.53C203.024 180.835 202.518 180.669 202.265 180.171L197.543 172.444L196.025 173.94V180.337C196.025 180.752 195.856 180.919 195.434 180.919H191.555C191.134 180.919 190.965 180.752 190.965 180.337V154.582C190.965 154.166 191.134 154 191.555 154H195.35ZM162.042 154.914C160.608 155.329 159.681 156.825 160.102 158.154C160.44 159.483 161.957 160.231 163.391 159.816C164.824 159.4 165.752 157.905 165.331 156.576C164.993 155.246 163.475 154.499 162.042 154.914Z" fill="white"></path><path fill-rule="evenodd" clip-rule="evenodd" d="M212.394 171H211.574C211.164 171 211 170.837 211 170.428V154.572C211 154.163 211.164 154 211.574 154H215.426C215.836 154 216 154.163 216 154.572V155.144C214.525 155.471 213.377 157.024 213.295 158.822C213.213 160.293 213.869 161.683 214.853 162.418C214.115 162.909 213.541 163.726 213.459 164.788C213.295 165.851 213.705 166.913 214.361 167.649C213.705 167.976 213.049 168.548 212.721 169.365C212.394 169.856 212.312 170.51 212.394 171Z" fill="white"></path><path fill-rule="evenodd" clip-rule="evenodd" d="M213.13 169.524C212.841 170.162 213.034 170.8 213.707 170.959C214.38 171.119 215.148 170.8 215.437 170.162C215.725 169.524 215.533 168.886 214.86 168.727C214.283 168.567 213.514 168.886 213.13 169.524ZM214.379 164.979C214.187 165.936 214.764 166.813 215.726 166.972C216.687 167.132 217.648 166.494 217.936 165.457C218.225 164.42 217.552 163.623 216.591 163.464C215.629 163.304 214.572 164.022 214.379 164.979ZM214.091 159.237C213.995 160.593 215.052 161.709 216.398 161.789C217.744 161.869 218.898 160.832 218.994 159.556C219.09 158.2 218.033 157.084 216.687 157.004C215.341 156.925 214.187 157.961 214.091 159.237Z" fill="white"></path><path d="M80 263.876L66.3977 272.366H65.9204L55.6591 266.145L63.2159 261.522L59.5568 259C57.0909 260.597 54.6251 262.194 52.1592 263.792C52.1592 265.221 52.1592 266.65 52.1592 268.079C55.5797 270.18 59 272.366 62.4205 274.468L52.1592 280.688V285.312L62.2612 291.532L52 297.921L52.1592 302.377C56.7729 299.518 61.466 296.66 66.0796 293.886C69.4205 295.988 72.7612 298.005 76.1816 300.107L68.7841 304.73L72.4432 307C74.9887 305.403 77.4546 303.806 80 302.208C79.9205 300.779 79.9203 299.35 79.8408 297.921L69.8976 291.532L79.8408 285.312V280.856L69.5795 274.468L80 268.247V263.876ZM76.2612 283.126L65.8408 289.515L55.7388 283.126L66.1589 276.905L76.2612 283.126Z" fill="white"></path><path d="M14.6121 72.6154C13.9931 73.3846 13.2856 73.9231 12.4012 74.3846C11.5169 74.7692 10.6328 75 9.57161 75C8.5104 75 7.53737 74.7692 6.65303 74.3846C5.76868 73.9231 5.1499 73.3846 4.70773 72.6154C4.26556 71.8462 4 71 4 70C4 69 4.26556 68.1538 4.70773 67.3846C5.1499 66.6154 5.85712 66 6.65303 65.6154C7.53737 65.1538 8.42197 65 9.57161 65C10.5444 65 11.5169 65.2308 12.4012 65.6154C13.2856 66 13.9931 66.6154 14.6121 67.3846C15.2311 68.1538 15.6733 69 15.9386 70C15.5849 71 15.1427 71.9231 14.6121 72.6154ZM6.3879 71.9231C6.74163 72.4615 7.18389 72.9231 7.80293 73.2308C8.42197 73.5385 9.12927 73.6923 9.83674 73.6923C10.9864 73.6923 12.0476 73.3846 12.9319 72.6923C13.8163 72 14.5237 71.1538 15.0543 70C14.5237 68.8462 13.8163 67.9231 12.9319 67.3077C12.0476 66.6154 10.9864 66.3077 9.83674 66.3077C9.04084 66.3077 8.33354 66.4615 7.80293 66.7692C7.18389 67.0769 6.74163 67.5385 6.3879 68.0769C6.03416 68.6154 5.8572 69.3077 5.8572 70C5.8572 70.6923 6.03416 71.3846 6.3879 71.9231ZM14.7891 71.1538L15.3198 70L14.7891 68.8462L15.1428 65.2308H17L16.4693 70.0769L17 74.9231H15.1428L14.7891 71.1538Z" fill="black"></path><path d="M32.2481 73.5496C31.8722 74.0077 31.3458 74.3893 30.6691 74.6183C29.9924 74.8473 29.1654 75 28.188 75C27.2105 75 26.3082 74.8473 25.4811 74.542C24.7292 74.2367 24.1278 73.855 23.6766 73.3206C23.2255 72.7863 23 72.1756 23 71.5649H24.5787C24.6539 72.0229 24.8045 72.4046 25.1804 72.7099C25.4812 73.0153 25.9321 73.3206 26.4584 73.4733C26.9847 73.626 27.5865 73.7786 28.2632 73.7786C28.9399 73.7786 29.466 73.7023 29.9172 73.5496C30.3683 73.397 30.7442 73.2443 30.9697 72.939C31.1953 72.6336 31.3457 72.4046 31.3457 72.0229C31.3457 71.7176 31.2707 71.4886 31.1203 71.3359C30.9699 71.1832 30.6691 71.0305 30.3684 70.9542C29.9924 70.8779 29.4661 70.7252 28.8646 70.6489L27.0601 70.4962C25.7819 70.3435 24.8043 70.1145 24.278 69.6565C23.6765 69.1985 23.4508 68.5878 23.4508 67.9008C23.4508 66.9847 23.8269 66.2977 24.6539 65.7634C25.481 65.229 26.5339 65 27.8873 65C28.7896 65 29.6165 65.1527 30.3684 65.3817C31.1203 65.6107 31.7216 66.0687 32.0976 66.5267C32.5487 66.9847 32.7743 67.5954 32.8495 68.2061H31.2708C31.1956 67.5954 30.8194 67.1374 30.2179 66.7557C29.6163 66.374 28.7894 66.2214 27.7368 66.2214C26.8345 66.2214 26.1579 66.374 25.6316 66.603C25.1053 66.832 24.8797 67.2137 24.8797 67.7481C24.8797 68.1298 25.0299 68.4351 25.4058 68.6641C25.7066 68.8931 26.3083 69.0458 27.1354 69.1222L29.2405 69.3512C30.1428 69.4275 30.8946 69.5802 31.421 69.8092C31.9473 70.0382 32.3233 70.3435 32.6241 70.6489C32.8496 71.0306 33 71.4885 33 71.9466C32.7744 72.5572 32.6241 73.0916 32.2481 73.5496Z" fill="black"></path><path d="M49.173 73.5496C48.7594 74.0077 48.1804 74.3893 47.4361 74.6183C46.6917 74.8473 45.7821 75 44.707 75C43.6318 75 42.6393 74.8473 41.7295 74.542C40.9025 74.2367 40.2409 73.855 39.7447 73.3206C39.2484 72.7863 39 72.1756 39 71.5649H40.7369C40.8196 72.0229 40.9852 72.4046 41.3988 72.7099C41.7296 73.0153 42.2256 73.3206 42.8045 73.4733C43.3834 73.626 44.045 73.7786 44.7893 73.7786C45.5337 73.7786 46.1128 73.7023 46.609 73.5496C47.1052 73.397 47.5187 73.2443 47.7668 72.939C48.0149 72.6336 48.1803 72.4046 48.1803 72.0229C48.1803 71.7176 48.0978 71.4886 47.9324 71.3359C47.767 71.1832 47.4361 71.0305 47.1053 70.9542C46.6918 70.8779 46.1129 70.7252 45.4512 70.6489L43.4664 70.4962C42.0604 70.3435 40.9851 70.1145 40.4061 69.6565C39.7445 69.1985 39.4963 68.5878 39.4963 67.9008C39.4963 66.9847 39.9099 66.2977 40.8197 65.7634C41.7294 65.229 42.8871 65 44.3758 65C45.3683 65 46.2783 65.1527 47.1053 65.3817C47.9324 65.6107 48.5939 66.0687 49.0074 66.5267C49.5036 66.9847 49.7517 67.5954 49.8344 68.2061H48.0975C48.0148 67.5954 47.6014 67.1374 46.9398 66.7557C46.2781 66.374 45.3685 66.2214 44.2107 66.2214C43.2182 66.2214 42.4736 66.374 41.8947 66.603C41.3157 66.832 41.0676 67.2137 41.0676 67.7481C41.0676 68.1298 41.2332 68.4351 41.6467 68.6641C41.9775 68.8931 42.639 69.0458 43.5488 69.1222L45.8648 69.3512C46.8572 69.4275 47.6842 69.5802 48.2631 69.8092C48.842 70.0382 49.2557 70.3435 49.5865 70.6489C49.8346 71.0306 50 71.4885 50 71.9466C49.8346 72.5572 49.5865 73.0916 49.173 73.5496Z" fill="black"></path><path d="M57.2153 74.3799C56.4768 73.9923 55.9227 73.5271 55.5535 72.8295C55.1843 72.1318 55 71.2791 55 70.3488V65H56.8462V70.0388C56.8462 71.2016 57.1231 72.0543 57.7692 72.6744C58.4154 73.2946 59.2461 73.6047 60.4461 73.6047C61.2768 73.6047 62.0151 73.4496 62.569 73.1396C63.2151 72.8295 63.6767 72.3644 64.046 71.8217C64.4152 71.2791 64.5999 70.5814 64.5999 69.8062L65.3382 70.1163C65.2459 71.124 64.9691 71.9767 64.5075 72.6744C64.046 73.3721 63.3997 73.9923 62.569 74.3799C61.7382 74.7675 60.9075 75 59.8921 75C58.7844 74.9225 57.9538 74.7675 57.2153 74.3799ZM64.5075 71.4341V65H66.3537V71.6667L67 74.6899H65.1538L64.5075 71.4341Z" fill="black"></path><path d="M73.7204 65.2325L74.3227 68.5659V75H72.6023V68.3333L72 65.3101H73.7204V65.2325ZM79.2255 66.4728C78.8814 66.4728 78.6237 66.3953 78.2796 66.3953C77.5055 66.3953 76.817 66.5504 76.2148 66.8604C75.6127 67.1705 75.1829 67.6356 74.8389 68.2558C74.4948 68.8759 74.3227 69.5736 74.3227 70.3488L73.8065 69.7287C73.8065 68.7984 74.0647 68.0233 74.4088 67.3256C74.7529 66.6279 75.3549 66.0853 76.0431 65.6201C76.7312 65.2325 77.5052 65 78.4514 65C78.7095 65 79.0535 65 79.3116 65.0775C79.5697 65.0775 79.828 65.155 80 65.2325V66.6279C79.828 66.5504 79.4836 66.5504 79.2255 66.4728Z" fill="black"></path><path d="M95.6121 72.6154C94.9931 73.3846 94.2856 73.9231 93.4012 74.3846C92.5169 74.7692 91.6328 75 90.5716 75C89.5104 75 88.5374 74.7692 87.653 74.3846C86.7687 73.9231 86.1499 73.3846 85.7077 72.6154C85.2656 71.8462 85 71 85 70C85 69 85.2656 68.1538 85.7077 67.3846C86.1499 66.6154 86.8571 66 87.653 65.6154C88.5374 65.1538 89.422 65 90.5716 65C91.5444 65 92.5169 65.2308 93.4012 65.6154C94.2856 66 94.9931 66.6154 95.6121 67.3846C96.2311 68.1538 96.6733 69 96.9386 70C96.6733 71 96.2311 71.9231 95.6121 72.6154ZM87.3879 71.9231C87.7416 72.4615 88.1839 72.9231 88.8029 73.2308C89.422 73.5385 90.1293 73.6923 90.8367 73.6923C91.9864 73.6923 93.0476 73.3846 93.9319 72.6923C94.8163 72 95.5237 71.1538 96.0543 70C95.5237 68.8462 94.8163 67.9231 93.9319 67.3077C93.0476 66.6154 91.9864 66.3077 90.8367 66.3077C90.0408 66.3077 89.3335 66.4615 88.8029 66.7692C88.1839 67.0769 87.7416 67.5385 87.3879 68.0769C87.0342 68.6154 86.8572 69.3077 86.8572 70C86.8572 70.6923 87.0342 71.3846 87.3879 71.9231ZM95.7891 71.1538L96.3198 70L95.7891 68.8462L96.1428 65.2308H98L97.4693 70.0769L98 74.9231H96.1428L95.7891 71.1538Z" fill="black"></path><path d="M106.504 65.2344L107.03 68.5156V75H105.526V68.2812L105 65.1562H106.504V65.2344ZM113.12 65.5468C113.722 65.9375 114.173 66.4062 114.549 67.1093C114.85 67.8125 115 68.6718 115 69.6094V75H113.496V69.9219C113.496 68.75 113.271 67.8906 112.744 67.2656C112.218 66.6406 111.466 66.3281 110.489 66.3281C109.812 66.3281 109.211 66.4844 108.684 66.7969C108.158 67.1094 107.782 67.5781 107.481 68.125C107.18 68.6719 107.03 69.375 107.03 70.1562L106.429 69.6875C106.504 68.75 106.729 67.8906 107.18 67.1875C107.556 66.4844 108.083 65.9375 108.759 65.5468C109.436 65.1562 110.188 65 110.94 65C111.767 65 112.519 65.2343 113.12 65.5468Z" fill="black"></path><path d="M131.979 73.1538C131.468 73.7692 130.702 74.2308 129.851 74.5385C129 74.8462 128.064 75 127.043 75C125.851 75 124.83 74.7692 123.894 74.3846C122.957 73.9231 122.277 73.3846 121.766 72.6154C121.255 71.8462 121 71 121 70C121 69 121.255 68.1538 121.766 67.3846C122.277 66.6154 122.957 66 123.894 65.6154C124.83 65.1538 125.851 65 127.043 65C128.064 65 129 65.1538 129.851 65.4615C130.702 65.7692 131.383 66.2308 131.979 66.8462C132.574 67.4616 132.83 68.0769 133 68.8462H131.213C131.042 68.0769 130.532 67.4615 129.766 67C129 66.5384 128.064 66.3077 127.043 66.3077C126.192 66.3077 125.426 66.4615 124.83 66.7692C124.149 67.0769 123.723 67.5385 123.383 68.0769C123.042 68.6154 122.872 69.3077 122.872 70.0769C122.872 70.8461 123.042 71.4615 123.383 72.0769C123.723 72.6154 124.234 73.0769 124.83 73.3846C125.511 73.6923 126.192 73.8462 127.043 73.8462C128.149 73.8462 129 73.6154 129.766 73.1538C130.532 72.6923 130.957 72.0769 131.128 71.3077H132.915C132.83 71.9231 132.489 72.6154 131.979 73.1538Z" fill="black"></path><path d="M141.066 74.313C140.102 73.855 139.314 73.3206 138.789 72.5573C138.263 71.7939 138 70.9542 138 69.9618C138 68.9695 138.263 68.1298 138.789 67.3664C139.314 66.603 140.015 65.9924 140.978 65.6107C141.942 65.1527 142.993 65 144.131 65C145.27 65 146.321 65.229 147.197 65.687C148.073 66.1451 148.774 66.7557 149.299 67.5954C149.825 68.4351 150 69.3511 150 70.4198H139.402V69.1985H149.299L148.248 69.8092C148.248 69.1221 147.985 68.5115 147.635 67.9771C147.285 67.4428 146.847 67.0611 146.234 66.7557C145.621 66.4504 144.92 66.2977 144.131 66.2977C143.255 66.2977 142.555 66.4504 141.942 66.7557C141.328 67.0611 140.803 67.4428 140.453 68.0534C140.102 68.5878 139.927 69.2748 139.927 69.9618C139.927 70.7252 140.103 71.4122 140.54 71.9466C140.978 72.4809 141.504 72.9389 142.205 73.2443C142.905 73.5496 143.781 73.7023 144.745 73.7023C145.621 73.7023 146.496 73.5497 147.372 73.3206C148.248 73.0916 149.037 72.7099 149.737 72.2519V73.4733C149.037 73.9313 148.248 74.313 147.285 74.6183C146.321 74.9237 145.445 75 144.482 75C143.168 74.9237 142.029 74.771 141.066 74.313Z" fill="black"></path><path d="M167 61V75H166V61H167Z" fill="black"></path><path d="M176.066 74.313C175.102 73.855 174.314 73.3206 173.788 72.5573C173.263 71.7939 173 70.9542 173 69.9618C173 68.9695 173.263 68.1298 173.788 67.3664C174.314 66.603 175.014 65.9924 175.978 65.6107C176.941 65.1527 177.993 65 179.131 65C180.27 65 181.321 65.229 182.197 65.687C183.073 66.1451 183.773 66.7557 184.299 67.5954C184.825 68.4351 185 69.3511 185 70.4198H174.402V69.1985H184.299L183.248 69.8092C183.248 69.1221 182.985 68.5115 182.635 67.9771C182.285 67.4428 181.847 67.0611 181.233 66.7557C180.62 66.4504 179.92 66.2977 179.131 66.2977C178.255 66.2977 177.555 66.4504 176.942 66.7557C176.328 67.0611 175.803 67.4428 175.452 68.0534C175.102 68.5878 174.927 69.2748 174.927 69.9618C174.927 70.7252 175.102 71.4122 175.54 71.9466C175.978 72.4809 176.503 72.9389 177.204 73.2443C177.905 73.5496 178.781 73.7023 179.745 73.7023C180.621 73.7023 181.496 73.5497 182.372 73.3206C183.248 73.0916 184.036 72.7099 184.737 72.2519V73.4733C184.036 73.9313 183.248 74.313 182.285 74.6183C181.321 74.9237 180.445 75 179.482 75C178.08 74.9237 177.029 74.771 176.066 74.313Z" fill="black"></path><path d="M193.5 74.3892C192.75 73.9701 192.167 73.3832 191.667 72.6287C191.167 71.8742 191 70.9521 191 70.0299C191 69.0239 191.25 68.1856 191.667 67.4312C192.084 66.6767 192.667 66.0898 193.5 65.6706C194.25 65.2515 195.083 65 196.083 65C197.167 65 198.167 65.2515 199.083 65.8383C200 66.4251 200.75 67.0958 201.25 67.8503C201.75 68.6048 202 69.3593 202 70.0299C202 70.7006 201.75 71.4551 201.25 72.2934C200.75 73.0479 200 73.7185 199.083 74.3054C198.167 74.8084 197.167 75.1437 196.083 75.1437C195.083 75.0599 194.25 74.8084 193.5 74.3892ZM201.333 71.2874L201.416 71.0359V69.2754L201.333 68.9401V65.2515H203V72.9641C203 74.3054 202.75 75.3952 202.167 76.3174C201.583 77.2395 200.917 77.9102 199.917 78.3294C198.917 78.7485 197.917 79 196.667 79C195.75 79 194.917 78.8323 194.167 78.5808C193.417 78.3293 192.667 77.9102 192 77.4072V75.8982C192.667 76.485 193.417 76.9042 194.25 77.1557C195 77.4072 195.833 77.5748 196.667 77.5748C198.167 77.5748 199.333 77.1557 200.166 76.4012C201 75.6467 201.333 74.5569 201.333 73.1317V71.2874ZM199.167 72.7964C200 72.2096 200.75 71.2874 201.416 70.0299C200.75 68.7725 200 67.8503 199.167 67.2635C198.333 66.6767 197.416 66.3413 196.417 66.3413C195.667 66.3413 195 66.509 194.417 66.8443C193.833 67.1796 193.417 67.5988 193.167 68.1018C192.917 68.6886 192.75 69.2754 192.75 70.0299C192.75 70.7844 192.917 71.3712 193.167 71.9581C193.417 72.5449 193.917 72.9641 194.417 73.2156C195 73.5509 195.667 73.7186 196.417 73.7186C197.5 73.6347 198.333 73.3832 199.167 72.7964Z" fill="black"></path><path d="M210.267 62.9535C210.067 62.7093 210 62.4651 210 62.1396C210 61.814 210.067 61.5698 210.267 61.3256C210.467 61.0814 210.667 61 211 61C211.267 61 211.533 61.0814 211.733 61.3256C211.933 61.5698 212 61.814 212 62.1396C212 62.4651 211.933 62.7093 211.733 62.9535C211.533 63.1977 211.333 63.2791 211 63.2791C210.733 63.1977 210.467 63.1163 210.267 62.9535ZM211 64.907L211.667 64.7442V75H210.333V64.7442L211 64.907Z" fill="black"></path><path d="M220.074 74.3846C219.108 73.9231 218.317 73.3846 217.79 72.6154C217.263 71.8462 217 71 217 70C217 69 217.263 68.1538 217.79 67.3846C218.317 66.6154 219.108 66 220.074 65.6154C221.04 65.2308 222.182 65 223.5 65C224.817 65 225.872 65.2308 226.926 65.6154C227.892 66.0769 228.682 66.6154 229.209 67.3846C229.736 68.1538 230 69 230 70C230 71 229.736 71.8462 229.209 72.6154C228.682 73.3846 227.892 73.9231 226.926 74.3846C225.96 74.8462 224.817 75 223.5 75C222.27 75 221.128 74.8462 220.074 74.3846ZM226.047 73.3077C226.75 73 227.277 72.5384 227.716 72C228.068 71.4615 228.331 70.7692 228.331 70C228.331 69.2308 228.155 68.6154 227.716 68C227.365 67.4616 226.75 67 226.047 66.6923C225.345 66.3846 224.466 66.2308 223.588 66.2308C222.622 66.2308 221.831 66.3846 221.128 66.6923C220.426 67 219.899 67.4616 219.46 68C219.108 68.5385 218.845 69.2308 218.845 70C218.845 70.7692 219.02 71.3846 219.46 72C219.811 72.5384 220.426 73 221.128 73.3077C221.831 73.6154 222.709 73.7692 223.588 73.7692C224.466 73.7692 225.345 73.6154 226.047 73.3077Z" fill="black"></path><path d="M236.805 65.2344L237.436 68.5156V75H235.631V68.2812L235 65.1562H236.805V65.2344ZM244.744 65.5468C245.466 65.9375 246.007 66.4062 246.459 67.1093C246.819 67.8125 247 68.6718 247 69.6094V75H245.195V69.9219C245.195 68.75 244.925 67.8906 244.293 67.2656C243.662 66.6406 242.759 66.3281 241.586 66.3281C240.774 66.3281 240.053 66.4844 239.421 66.7969C238.789 67.1094 238.338 67.5781 237.977 68.125C237.616 68.6719 237.436 69.375 237.436 70.1562L236.714 69.6875C236.804 68.75 237.075 67.8906 237.616 67.1875C238.068 66.4844 238.699 65.9375 239.511 65.5468C240.323 65.1562 241.226 65 242.128 65C243.12 65 244.023 65.2343 244.744 65.5468Z" fill="black"></path><path d="M24.0847 0C20.4694 0 16.9344 0.49498 15.4883 0.907437C13.3995 1.48488 12.9177 2.47479 12.516 4.37209L4.24086 43.6381C4.08018 44.463 4 45.1229 4 45.7828C4 47.7626 5.20516 49 7.29396 49C9.54344 49 10.4272 47.5152 10.9092 45.2879L13.2389 34.069C14.8457 34.234 17.0149 34.4815 20.0677 34.4815C33.5646 34.4815 42 26.9747 42 15.6734C41.9197 5.69192 35.1714 0 24.0847 0ZM19.666 27.9647C17.5772 27.9647 15.9705 27.8822 14.444 27.7172L18.7822 6.84684C20.148 6.68186 22.1567 6.35186 24.2455 6.35186C31.3956 6.35186 35.0912 9.81651 35.0912 15.5909C35.0912 23.0152 29.869 27.9647 19.666 27.9647Z" fill="black"></path><path d="M245.315 36.0095C244.176 36.0095 243.444 36.68 242.061 38.2724C239.62 40.8705 238.075 42.2952 236.203 42.2952C234.495 42.2952 233.6 40.8705 233.6 38.5238C233.6 37.2667 233.844 35.6743 234.169 33.9981L236.61 22.181H243.932C246.21 22.181 247.593 20.84 247.593 18.4095C247.593 17.0686 246.698 16.0629 244.746 16.0629H237.912L239.132 10.5315C239.295 9.69336 239.376 8.93907 239.376 8.26859C239.376 6.34097 238.156 5 236.041 5C233.844 5 232.868 6.50857 232.38 8.77143L230.834 15.9791H227.742C225.383 15.9791 224 17.32 224 19.7505C224 21.0915 224.895 22.0972 226.929 22.0972H229.613L227.173 33.8305C226.929 35.0876 226.604 37.2667 226.604 39.4457C226.604 44.9772 229.369 49 235.308 49C238.725 49 241.817 47.24 244.095 45.1448C246.373 43.1334 248 40.619 248 38.9429C248 37.2667 246.78 36.0095 245.315 36.0095Z" fill="black"></path><path d="M89 3.28353C89 1.26291 87.7503 0 85.7971 0C83.6877 0 82.7502 1.51546 82.2815 3.78866L74.3124 43.5275C74.1562 44.3694 74 45.0429 74 45.7165C74 47.7371 75.2501 49 77.2033 49C79.3908 49 80.3283 47.4845 80.7189 45.2113L88.6876 5.47251C88.7657 4.63058 89 3.95706 89 3.28353Z" fill="black"></path><path d="M211.109 15.3808C200.149 15.3808 192.73 26.223 192.73 36.5609C192.73 36.729 192.73 36.9812 192.73 37.1492C191.044 39.7547 188.852 42.4443 187.335 42.4443C186.239 42.4443 185.817 41.4357 185.817 39.8387C185.817 37.9056 186.323 34.7118 186.997 31.9383L192.646 5.71526C192.814 4.87478 192.899 4.20241 192.899 3.53003C192.899 1.51287 191.634 0.252134 189.442 0.252134C187.082 0.252134 186.154 1.765 185.648 4.0343L182.529 18.2384C180.843 16.5575 178.483 15.3808 174.858 15.3808C167.607 15.3808 160.273 20.9279 157.406 29.5008C154.287 37.5695 151.421 42.3602 149.229 42.3602C148.386 42.3602 147.964 41.6878 147.964 40.5112C147.964 37.0652 149.903 28.7444 150.662 24.7101C150.915 23.1972 151.083 22.6089 151.083 21.6844C151.083 18.6587 146.109 15.1286 139.618 15.1286C132.115 15.1286 125.286 19.8353 121.83 26.8954C116.771 35.8045 112.135 42.2762 109.774 42.2762C108.762 42.2762 108.425 41.0154 108.172 39.7547L106.486 30.3413L116.94 21.7684C117.867 20.9279 119.132 19.7513 119.132 18.3225C119.132 16.4734 117.867 15.2127 116.013 15.2127C114.664 15.2127 113.484 16.0532 112.303 16.9777L96.5381 29.9211L101.85 5.46312C102.018 4.62264 102.187 3.95023 102.187 3.27784C102.187 1.26069 100.838 0 98.7301 0C96.4539 0 95.4422 1.51286 94.9364 3.78216L86.3375 43.4529C86.1689 44.2933 86 44.9657 86 45.6381C86 47.6552 87.349 48.916 89.4566 48.916C91.8171 48.916 92.8288 47.4031 93.2503 45.1338L94.3465 40.0068L100.753 34.7959L102.355 42.6964C102.946 45.8062 104.631 48.916 108.847 48.916C113.062 48.916 116.35 45.0497 119.722 39.8387C120.734 45.3019 124.612 48.916 130.007 48.916C135.403 48.916 139.112 45.7221 141.473 41.4357V41.6038C141.473 46.0583 143.749 49 147.711 49C151.336 49 154.287 46.8148 156.985 42.2762C158.502 46.3105 161.874 49 166.595 49C172.16 49 176.122 45.6381 178.651 41.0154V41.4357C178.651 46.3105 181.096 49 185.143 49C188.683 49 191.718 46.8988 194.332 43.5369C196.271 46.8988 199.812 49 204.617 49C215.577 49 222.995 38.1578 222.995 27.7359C223.164 20.6758 218.78 15.3808 211.109 15.3808ZM142.906 29.2487C140.882 37.8216 136.668 42.6124 131.862 42.6124C128.659 42.6124 126.888 40.1749 126.888 36.4768C126.888 29.2487 132.199 21.4323 139.196 21.4323C141.304 21.4323 142.99 22.0206 144.423 22.9451L142.906 29.2487ZM181.012 25.6347C178.82 35.6364 173.846 42.6124 168.366 42.6124C165.331 42.6124 163.56 40.259 163.56 36.4768C163.56 29.1646 168.619 21.6004 175.363 21.6004C177.977 21.6004 179.916 22.5249 181.349 23.6175L181.012 25.6347ZM205.629 42.6124C201.667 42.6124 199.98 39.7547 199.98 36.1407C199.98 29.5009 204.533 21.9365 210.35 21.9365C214.312 21.9365 215.998 24.7942 215.998 28.4082C215.914 35.1321 211.362 42.6124 205.629 42.6124Z" fill="black"></path><path d="M59.72 16C48.5566 16 41 26.5896 41 36.6866C41 43.9104 45.5511 49 53.2796 49C64.443 49 72 38.4105 72 28.2314C72 21.1717 67.4485 16 59.72 16ZM54.0523 42.597C50.0163 42.597 48.2991 39.806 48.2991 36.2761C48.2991 29.791 52.9361 22.403 58.8613 22.403C62.8973 22.403 64.6149 25.194 64.6149 28.7239C64.6149 35.291 59.8917 42.597 54.0523 42.597Z" fill="black"></path><path d="M5.76467 390.239V392.628L5.67635 392.867V394.221L5.76467 394.619V399H4V390.239H5.76467ZM5.94131 391.752C6.29425 391.195 6.82373 390.796 7.35314 390.478C7.88254 390.159 8.58815 390 9.29402 390C9.99989 390 10.7059 390.159 11.2353 390.478C11.7647 390.796 12.2941 391.195 12.5588 391.752C12.9118 392.31 13 392.947 13 393.584C13 394.221 12.8235 394.858 12.5588 395.416C12.2059 395.973 11.7647 396.372 11.2353 396.69C10.7059 397.009 9.99989 397.168 9.29402 397.168C8.58815 397.168 7.97043 397.009 7.44102 396.69C6.91162 396.372 6.38257 395.973 6.02963 395.416C5.6767 394.858 5.32376 394.221 5.1473 393.584C5.23553 392.867 5.50014 392.31 5.94131 391.752ZM10.9704 392.389C10.7939 392.071 10.441 391.752 10.088 391.593C9.7351 391.434 9.29402 391.274 8.85285 391.274C8.14698 391.274 7.52926 391.513 6.99986 391.912C6.47045 392.31 6.02929 392.867 5.67635 393.584C5.94105 394.301 6.38257 394.858 6.91197 395.257C7.44137 395.655 8.05866 395.894 8.76453 395.894C9.2057 395.894 9.64721 395.814 10.0001 395.575C10.3531 395.416 10.6178 395.097 10.8825 394.779C11.0589 394.46 11.2353 394.062 11.2353 393.584C11.3236 393.186 11.1468 392.788 10.9704 392.389Z" fill="black"></path><path d="M19.1175 397.467C18.4117 397.111 17.8824 396.667 17.5295 396.044C17.1766 395.422 17 394.711 17 394C17 393.2 17.1766 392.489 17.5295 391.956C17.8824 391.422 18.4117 390.889 19.1175 390.533C19.8234 390.178 20.6177 390 21.5 390C22.3823 390 23.1762 390.178 23.882 390.533C24.5879 390.889 25.1176 391.333 25.4705 391.956C25.8234 392.578 26 393.289 26 394C26 394.8 25.8234 395.511 25.4705 396.044C25.1176 396.667 24.5879 397.111 23.882 397.467C23.1762 397.822 22.3823 398 21.5 398C20.6177 398 19.8234 397.822 19.1175 397.467ZM22.9997 396.311C23.4409 396.133 23.7939 395.778 23.9704 395.422C24.2351 395.067 24.3232 394.533 24.3232 394C24.3232 393.467 24.2351 393.022 23.9704 392.578C23.7057 392.222 23.4409 391.867 22.9997 391.689C22.5585 391.511 22.1176 391.333 21.5 391.333C20.8824 391.333 20.441 391.422 19.9999 391.689C19.5587 391.956 19.2057 392.222 19.0292 392.578C18.7645 392.933 18.6764 393.467 18.6764 394C18.6764 394.533 18.7645 394.978 19.0292 395.422C19.2939 395.778 19.5587 396.133 19.9999 396.311C20.441 396.489 20.8824 396.667 21.5 396.667C22.1176 396.667 22.5585 396.578 22.9997 396.311Z" fill="black"></path><path d="M32 387V398H30V387H32Z" fill="black"></path><path d="M37.1181 396.198L41.7633 389.94H43.7421L37.5483 398H36V387H37.7205V396.388L37.1181 396.198ZM40.9031 392.784L44 398H42.0216L39.7849 394.017L40.9031 392.784Z" fill="black"></path><path d="M54.9708 396.044C54.6179 396.667 54.0884 397.111 53.559 397.467C53.0296 397.822 52.3236 398 51.706 398C51.0001 398 50.2941 397.822 49.7647 397.467C49.2353 397.111 48.7059 396.667 48.4412 396.044C48.1765 395.422 48 394.711 48 394C48 393.289 48.1765 392.578 48.4412 391.956C48.7059 391.333 49.2353 390.889 49.7647 390.533C50.2941 390.178 51.0001 390 51.706 390C52.4119 390 53.0297 390.178 53.6473 390.533C54.2649 390.889 54.7058 391.333 55.0587 391.956C55.4116 392.578 55.7649 393.289 55.8531 394C55.6767 394.711 55.3237 395.422 54.9708 396.044ZM49.9413 395.244C50.1178 395.6 50.4707 395.956 50.8236 396.133C51.1766 396.311 51.6177 396.489 52.0588 396.489C52.7647 396.489 53.3824 396.222 53.9118 395.778C54.4412 395.333 54.8823 394.711 55.147 393.911C54.8823 393.111 54.4411 392.489 53.8235 392.044C53.2941 391.6 52.6764 391.333 51.9705 391.333C51.5293 391.333 51.0883 391.422 50.7353 391.689C50.3824 391.867 50.1177 392.222 49.853 392.578C49.6765 392.933 49.5001 393.378 49.5001 393.911C49.5884 394.444 49.7648 394.889 49.9413 395.244ZM54.9708 394.889L55.3236 393.911L54.9708 392.933L55.2353 390.089H57L56.5588 393.911L57 397.733H55.2353L54.9708 394.889Z" fill="black"></path><path d="M67.7718 395.966C67.4289 396.613 66.9145 397.076 66.4003 397.445C65.886 397.815 65.2002 398 64.6002 398C63.9145 398 63.2286 397.815 62.7143 397.445C62.2 397.076 61.6857 396.613 61.4286 395.966C61.1714 395.319 61 394.58 61 393.84C61 393.101 61.1714 392.361 61.4286 391.714C61.6857 391.067 62.2 390.605 62.7143 390.235C63.2286 389.866 63.9145 389.681 64.6002 389.681C65.2859 389.681 65.886 389.866 66.486 390.235C67.086 390.605 67.5143 391.067 67.8571 391.714C68.2 392.361 68.5432 393.101 68.6289 393.84C68.3718 394.58 68.1146 395.319 67.7718 395.966ZM62.8859 395.134C63.0573 395.504 63.4002 395.874 63.743 396.059C64.0859 396.244 64.5144 396.429 64.9429 396.429C65.6287 396.429 66.2287 396.151 66.743 395.689C67.2573 395.227 67.6858 394.58 67.9429 393.748C67.6858 392.916 67.2572 392.269 66.6572 391.807C66.1429 391.345 65.5429 391.067 64.8571 391.067C64.4286 391.067 64.0001 391.16 63.6572 391.437C63.3144 391.622 63.0572 391.992 62.8001 392.361C62.6287 392.731 62.4573 393.193 62.4573 393.748C62.543 394.303 62.6287 394.765 62.8859 395.134ZM67.7718 394.765L68.1145 393.84L67.7718 392.731L68.2857 387H70L69.3145 393.655L69.6572 397.723H67.9429L67.7718 394.765Z" fill="black"></path><path d="M76.1176 397.467C75.4117 397.111 74.8825 396.667 74.5295 396.044C74.1766 395.422 74 394.711 74 394C74 393.2 74.1766 392.489 74.5295 391.956C74.8825 391.422 75.4117 390.889 76.1176 390.533C76.8235 390.178 77.6178 390 78.5002 390C79.3826 390 80.1765 390.178 80.8824 390.533C81.5883 390.889 82.118 391.333 82.4709 391.956C82.8239 392.578 83 393.289 83 394C83 394.8 82.8239 395.511 82.4709 396.044C82.118 396.667 81.5883 397.111 80.8824 397.467C80.1765 397.822 79.3826 398 78.5002 398C77.6178 398 76.8235 397.822 76.1176 397.467ZM80.0883 396.311C80.5295 396.133 80.8826 395.778 81.059 395.422C81.3237 395.067 81.4119 394.533 81.4119 394C81.4119 393.467 81.3237 393.022 81.059 392.578C80.7943 392.222 80.5295 391.867 80.0883 391.689C79.6471 391.511 79.2058 391.333 78.5881 391.333C77.9704 391.333 77.5295 391.422 77.0883 391.689C76.6471 391.956 76.2941 392.222 76.1176 392.578C75.8529 392.933 75.7648 393.467 75.7648 394C75.7648 394.533 75.8529 394.978 76.1176 395.422C76.3823 395.778 76.6471 396.133 77.0883 396.311C77.5295 396.489 77.9704 396.667 78.5881 396.667C79.1175 396.667 79.6471 396.578 80.0883 396.311Z" fill="black"></path><path d="M85.0887 391.373L86.6835 390.964L87.3922 389H88.367V390.8H91.9113V392.027H88.367V395.055C88.367 395.464 88.4557 395.791 88.5443 395.955C88.633 396.2 88.8103 396.364 89.0761 396.445C89.3419 396.527 89.696 396.609 90.0504 396.609C90.4049 396.609 90.7595 396.609 91.1139 396.527C91.3797 396.445 91.7342 396.364 92 396.2V397.509C91.7342 397.673 91.3796 397.755 90.9365 397.836C90.4935 397.918 90.0505 398 89.6961 398C88.6328 398 87.8352 397.755 87.3922 397.264C86.8605 396.773 86.5948 396.118 86.5948 395.3V392.027H85V391.373H85.0887Z" fill="black"></path><path d="M102.903 396.044C102.554 396.667 102.029 397.111 101.505 397.467C100.981 397.822 100.282 398 99.67 398C98.971 398 98.2718 397.822 97.7475 397.467C97.2233 397.111 96.699 396.667 96.4369 396.044C96.1748 395.422 96 394.711 96 394C96 393.289 96.1748 392.578 96.4369 391.956C96.699 391.333 97.2233 390.889 97.7475 390.533C98.2718 390.178 98.971 390 99.67 390C100.369 390 100.981 390.178 101.592 390.533C102.204 390.889 102.641 391.333 102.99 391.956C103.34 392.578 103.689 393.289 103.777 394C103.602 394.711 103.34 395.422 102.903 396.044ZM97.9224 395.244C98.0972 395.6 98.4467 395.956 98.7962 396.133C99.1457 396.311 99.5825 396.489 100.019 396.489C100.718 396.489 101.33 396.222 101.854 395.778C102.379 395.333 102.815 394.711 103.078 393.911C102.815 393.111 102.379 392.489 101.767 392.044C101.243 391.6 100.631 391.333 99.9319 391.333C99.495 391.333 99.0583 391.422 98.7087 391.689C98.3592 391.867 98.0971 392.222 97.835 392.578C97.6602 392.933 97.4856 393.378 97.4856 393.911C97.6603 394.444 97.7477 394.889 97.9224 395.244ZM102.99 394.889L103.34 393.911L102.99 392.933L103.252 390.089H105L104.563 393.911L105 397.733H103.252L102.99 394.889Z" fill="black"></path><path d="M117.174 396.844C116.898 397.2 116.439 397.467 115.796 397.733C115.153 397.911 114.418 398 113.592 398C112.674 398 111.847 397.911 111.204 397.644C110.561 397.378 110.01 397.111 109.643 396.667C109.275 396.222 109.092 395.778 109 395.244H110.837C110.929 395.511 111.02 395.778 111.296 396.044C111.571 396.222 111.847 396.4 112.306 396.578C112.674 396.667 113.133 396.756 113.684 396.756C114.143 396.756 114.602 396.756 114.97 396.667C115.337 396.578 115.52 396.489 115.704 396.311C115.888 396.133 115.98 395.956 115.98 395.689C115.98 395.511 115.888 395.422 115.796 395.244C115.704 395.156 115.52 395.067 115.245 394.978C114.969 394.889 114.602 394.889 114.143 394.8L112.582 394.622C111.388 394.533 110.561 394.267 110.102 393.911C109.551 393.467 109.367 393.022 109.367 392.4C109.367 391.6 109.735 391.067 110.47 390.622C111.204 390.178 112.122 390 113.316 390C114.143 390 114.878 390.089 115.521 390.356C116.163 390.533 116.714 390.889 117.082 391.244C117.449 391.6 117.633 392.044 117.725 392.578H115.888C115.796 392.222 115.612 391.956 115.153 391.689C114.694 391.422 114.143 391.333 113.316 391.333C112.673 391.333 112.123 391.422 111.847 391.6C111.48 391.778 111.296 391.956 111.296 392.311C111.296 392.489 111.388 392.667 111.663 392.844C111.939 393.022 112.306 393.111 112.857 393.111L114.878 393.289C115.612 393.378 116.255 393.467 116.714 393.733C117.174 393.911 117.449 394.178 117.725 394.533C117.908 394.8 118 395.244 118 395.6C117.541 396.044 117.449 396.489 117.174 396.844Z" fill="black"></path><path d="M128.174 396.844C127.898 397.2 127.439 397.467 126.796 397.733C126.153 397.911 125.418 398 124.592 398C123.674 398 122.847 397.911 122.204 397.644C121.561 397.378 121.01 397.111 120.643 396.667C120.275 396.222 120.092 395.778 120 395.244H121.837C121.929 395.511 122.02 395.778 122.296 396.044C122.571 396.222 122.847 396.4 123.306 396.578C123.674 396.667 124.133 396.756 124.684 396.756C125.143 396.756 125.602 396.756 125.97 396.667C126.337 396.578 126.52 396.489 126.704 396.311C126.888 396.133 126.98 395.956 126.98 395.689C126.98 395.511 126.888 395.422 126.796 395.244C126.704 395.156 126.52 395.067 126.245 394.978C125.969 394.889 125.602 394.889 125.143 394.8L123.582 394.622C122.388 394.533 121.561 394.267 121.102 393.911C120.551 393.467 120.367 393.022 120.367 392.4C120.367 391.6 120.735 391.067 121.47 390.622C122.204 390.178 123.122 390 124.316 390C125.143 390 125.878 390.089 126.521 390.356C127.163 390.533 127.714 390.889 128.082 391.244C128.449 391.6 128.633 392.044 128.725 392.578H126.888C126.796 392.222 126.612 391.956 126.153 391.689C125.694 391.422 125.143 391.333 124.316 391.333C123.673 391.333 123.123 391.422 122.847 391.6C122.48 391.778 122.296 391.956 122.296 392.311C122.296 392.489 122.388 392.667 122.663 392.844C122.939 393.022 123.306 393.111 123.857 393.111L125.878 393.289C126.612 393.378 127.255 393.467 127.714 393.733C128.174 393.911 128.449 394.178 128.725 394.533C128.908 394.8 129 395.244 129 395.6C128.633 396.044 128.449 396.489 128.174 396.844Z" fill="black"></path><path d="M134.432 397.609C133.926 397.334 133.589 396.876 133.337 396.326C133.084 395.776 133 395.134 133 394.309V390H134.684V394.034C134.684 394.859 134.853 395.501 135.19 395.867C135.526 396.234 136.031 396.509 136.705 396.509C137.126 396.509 137.547 396.418 137.884 396.143C138.221 395.959 138.474 395.592 138.642 395.226C138.811 394.859 138.895 394.309 138.895 393.759L139.484 394.126C139.4 394.951 139.232 395.592 138.895 396.143C138.558 396.693 138.221 397.151 137.716 397.518C137.211 397.793 136.705 397.976 136.116 397.976C135.526 398.068 134.937 397.884 134.432 397.609ZM138.895 395.042V390H140.579V395.317L141 397.884H139.316L138.895 395.042Z" fill="black"></path><path d="M146.471 390.184L146.838 393.034V398H145.368V392.667L145 390.184H146.471ZM149.485 391.563C149.265 391.563 149.117 391.563 148.97 391.563C148.529 391.563 148.162 391.655 147.867 391.931C147.573 392.207 147.279 392.483 147.132 392.943C146.985 393.402 146.838 393.954 146.838 394.506L146.471 393.954C146.471 393.218 146.618 392.483 146.838 391.931C147.059 391.379 147.353 390.828 147.721 390.552C148.088 390.184 148.529 390 149.118 390C149.265 390 149.412 390 149.559 390C149.706 390 149.853 390.092 150 390.092V391.655C149.853 391.655 149.632 391.563 149.485 391.563Z" fill="black"></path><path d="M160.903 396.044C160.553 396.667 160.029 397.111 159.505 397.467C158.981 397.822 158.281 398 157.67 398C156.971 398 156.272 397.822 155.748 397.467C155.223 397.111 154.699 396.667 154.437 396.044C154.175 395.422 154 394.711 154 394C154 393.289 154.175 392.578 154.437 391.956C154.699 391.333 155.223 390.889 155.748 390.533C156.272 390.178 156.971 390 157.67 390C158.369 390 158.981 390.178 159.592 390.533C160.204 390.889 160.641 391.333 160.99 391.956C161.34 392.578 161.689 393.289 161.777 394C161.602 394.711 161.34 395.422 160.903 396.044ZM155.922 395.244C156.097 395.6 156.446 395.956 156.796 396.133C157.145 396.311 157.582 396.489 158.019 396.489C158.718 396.489 159.33 396.222 159.854 395.778C160.379 395.333 160.815 394.711 161.077 393.911C160.815 393.111 160.378 392.489 159.767 392.044C159.242 391.6 158.631 391.333 157.932 391.333C157.495 391.333 157.058 391.422 156.708 391.689C156.359 391.867 156.097 392.222 155.835 392.578C155.66 392.933 155.485 393.378 155.485 393.911C155.66 394.444 155.747 394.889 155.922 395.244ZM160.99 394.889L161.34 393.911L160.99 392.933L161.252 390.089H163L162.563 393.911L163 397.733H161.252L160.99 394.889Z" fill="black"></path><path d="M168.875 390.182L169.344 393V398H167.469V392.818L167 390.273H168.875V390.182ZM174.406 390.364C174.969 390.636 175.343 391.091 175.625 391.636C175.906 392.182 176 392.818 176 393.636V397.909H174.125V393.909C174.125 393.091 173.937 392.455 173.562 392.091C173.187 391.727 172.625 391.455 171.875 391.455C171.312 391.455 170.937 391.545 170.468 391.818C170.093 392 169.812 392.364 169.531 392.727C169.343 393.091 169.25 393.636 169.25 394.182L168.593 393.818C168.687 393 168.875 392.364 169.25 391.818C169.625 391.273 170.094 390.818 170.562 390.455C171.125 390.182 171.687 390 172.437 390C173.281 390 173.844 390.091 174.406 390.364Z" fill="black"></path><path d="M187.347 396.4C187.02 396.844 186.531 397.289 185.959 397.556C185.388 397.822 184.735 398 184.082 398C183.265 398 182.612 397.822 181.959 397.467C181.306 397.111 180.898 396.667 180.49 396.044C180.163 395.422 180 394.711 180 394C180 393.289 180.163 392.578 180.49 391.956C180.816 391.333 181.306 390.889 181.959 390.533C182.612 390.178 183.265 390 184.082 390C184.816 390 185.388 390.178 185.959 390.444C186.531 390.711 187.02 391.067 187.347 391.6C187.673 392.044 187.918 392.667 188 393.289H186.367C186.286 392.756 185.959 392.311 185.551 391.956C185.143 391.6 184.571 391.511 184 391.511C183.51 391.511 183.102 391.6 182.694 391.867C182.286 392.044 182.041 392.4 181.878 392.756C181.714 393.111 181.551 393.644 181.551 394.178C181.551 394.711 181.633 395.156 181.878 395.6C182.041 395.956 182.368 396.311 182.694 396.489C183.102 396.667 183.51 396.844 184 396.844C184.653 396.844 185.143 396.667 185.551 396.4C185.959 396.044 186.286 395.6 186.367 395.067H188C187.918 395.333 187.755 395.956 187.347 396.4Z" fill="black"></path><path d="M193.105 397.529C192.432 397.17 191.926 396.722 191.59 396.095C191.253 395.467 191 394.75 191 394.033C191 393.227 191.169 392.599 191.505 391.972C191.842 391.344 192.348 390.896 192.937 390.538C193.527 390.179 194.284 390 195.042 390C195.8 390 196.558 390.179 197.148 390.538C197.737 390.896 198.242 391.434 198.495 392.151C198.832 392.868 199 393.675 199 394.571H192.263V393.227H198.158L197.316 393.764C197.316 393.227 197.147 392.868 196.979 392.51C196.811 392.151 196.474 391.882 196.137 391.703C195.8 391.524 195.379 391.434 194.958 391.434C194.453 391.434 194.032 391.524 193.695 391.703C193.358 391.882 193.021 392.241 192.853 392.599C192.684 392.958 192.516 393.406 192.516 393.944C192.516 394.482 192.6 395.019 192.853 395.378C193.105 395.826 193.442 396.095 193.863 396.364C194.285 396.633 194.874 396.722 195.463 396.722C196.053 396.722 196.558 396.633 197.148 396.453C197.737 396.274 198.242 396.005 198.663 395.647V396.902C198.242 397.26 197.653 397.529 197.063 397.708C196.474 397.888 195.8 397.977 195.127 397.977C194.537 398.067 193.779 397.888 193.105 397.529Z" fill="black"></path><path d="M204.5 397.75C204.333 397.625 204.25 397.375 204.167 397.25C204.083 397 204 396.75 204 396.5C204 396.25 204.083 396 204.167 395.75C204.25 395.5 204.417 395.375 204.5 395.25C204.667 395.125 204.833 395 205 395C205.167 395 205.333 395.125 205.5 395.25C205.667 395.375 205.75 395.625 205.833 395.75C205.917 396 206 396.25 206 396.5C206 396.75 205.917 397 205.833 397.25C205.75 397.5 205.583 397.625 205.5 397.75C205.333 397.875 205.167 398 205 398C204.833 397.875 204.667 397.875 204.5 397.75Z" fill="black"></path><path d="M218.265 396.4C217.898 396.844 217.347 397.289 216.704 397.556C216.061 397.822 215.327 398 214.592 398C213.674 398 212.939 397.822 212.204 397.467C211.469 397.111 211.01 396.667 210.551 396.044C210.183 395.422 210 394.711 210 394C210 393.289 210.183 392.578 210.551 391.956C210.918 391.333 211.469 390.889 212.204 390.533C212.939 390.178 213.674 390 214.592 390C215.418 390 216.061 390.178 216.704 390.444C217.347 390.711 217.898 391.067 218.265 391.6C218.633 392.044 218.908 392.667 219 393.289H217.163C217.071 392.756 216.704 392.311 216.245 391.956C215.786 391.6 215.143 391.511 214.5 391.511C213.949 391.511 213.49 391.6 213.03 391.867C212.571 392.044 212.296 392.4 212.112 392.756C211.928 393.111 211.745 393.644 211.745 394.178C211.745 394.711 211.837 395.156 212.112 395.6C212.296 395.956 212.663 396.311 213.03 396.489C213.49 396.667 213.949 396.844 214.5 396.844C215.235 396.844 215.786 396.667 216.245 396.4C216.704 396.044 217.071 395.6 217.163 395.067H219C219 395.333 218.725 395.956 218.265 396.4Z" fill="black"></path><path d="M224.647 397.467C224.098 397.111 223.686 396.667 223.412 396.044C223.137 395.422 223 394.711 223 394C223 393.2 223.137 392.489 223.412 391.956C223.686 391.422 224.098 390.889 224.647 390.533C225.196 390.178 225.814 390 226.5 390C227.186 390 227.804 390.178 228.353 390.533C228.902 390.889 229.314 391.333 229.588 391.956C229.863 392.578 230 393.289 230 394C230 394.8 229.863 395.511 229.588 396.044C229.314 396.667 228.902 397.111 228.353 397.467C227.804 397.822 227.186 398 226.5 398C225.814 398 225.196 397.822 224.647 397.467ZM227.667 396.311C228.01 396.133 228.284 395.778 228.422 395.422C228.628 395.067 228.696 394.533 228.696 394C228.696 393.467 228.628 393.022 228.422 392.578C228.216 392.222 228.01 391.867 227.667 391.689C227.324 391.511 226.98 391.333 226.5 391.333C226.02 391.333 225.677 391.422 225.334 391.689C224.99 391.956 224.716 392.222 224.579 392.578C224.373 392.933 224.304 393.467 224.304 394C224.304 394.533 224.373 394.978 224.579 395.422C224.784 395.778 224.99 396.133 225.334 396.311C225.677 396.489 226.02 396.667 226.5 396.667C226.912 396.667 227.324 396.578 227.667 396.311Z" fill="black"></path><path d="M235.761 390.182L236.201 393V398H234.44V392.818L234 390.273H235.761V390.182ZM241.308 390.909C241.837 391.545 242.101 392.455 242.101 393.636V397.909H240.34V393.909C240.34 393.091 240.163 392.455 239.811 392.091C239.459 391.727 239.019 391.455 238.402 391.455C237.962 391.455 237.61 391.545 237.258 391.818C236.906 392 236.642 392.364 236.466 392.727C236.29 393.091 236.201 393.636 236.201 394.182L235.585 393.818C235.673 393 235.849 392.364 236.113 391.818C236.378 391.273 236.818 390.818 237.258 390.455C237.786 390.182 238.314 390 238.931 390C239.987 390 240.78 390.273 241.308 390.909ZM246.591 390.364C247.031 390.636 247.383 391.091 247.647 391.636C247.912 392.182 248 392.818 248 393.636V397.909H246.239V393.909C246.239 393.091 246.063 392.455 245.711 392.091C245.358 391.636 244.918 391.455 244.302 391.455C243.862 391.455 243.51 391.545 243.157 391.818C242.805 392.091 242.541 392.364 242.365 392.727C242.188 393.091 242.101 393.636 242.101 394.182L241.484 393.818C241.572 393 241.748 392.364 242.012 391.818C242.277 391.273 242.717 390.818 243.157 390.455C243.686 390.182 244.214 390 244.742 390C245.534 390 246.151 390.091 246.591 390.364Z" fill="black"></path><path d="M61.996 143.538C61.996 143.288 62.0452 143.041 62.1408 142.81C62.2364 142.579 62.3765 142.37 62.5531 142.193C62.7297 142.016 62.9394 141.876 63.1701 141.781C63.4009 141.685 63.6482 141.636 63.898 141.636C64.1478 141.636 64.3951 141.685 64.6259 141.781C64.8566 141.876 65.0663 142.016 65.2429 142.193C65.4195 142.37 65.5596 142.579 65.6552 142.81C65.7508 143.041 65.8 143.288 65.8 143.538C65.8 144.042 65.5996 144.526 65.2429 144.883C64.8862 145.24 64.4024 145.44 63.898 145.44C63.3936 145.44 62.9098 145.24 62.5531 144.883C62.1964 144.526 61.996 144.042 61.996 143.538ZM39.304 160.758C39.304 160.508 39.3532 160.261 39.4488 160.03C39.5444 159.799 39.6845 159.59 39.8611 159.413C40.0377 159.236 40.2474 159.096 40.4781 159.001C40.7089 158.905 40.9562 158.856 41.206 158.856C41.4558 158.856 41.7031 158.905 41.9339 159.001C42.1646 159.096 42.3743 159.236 42.5509 159.413C42.7275 159.59 42.8676 159.799 42.9632 160.03C43.0588 160.261 43.108 160.508 43.108 160.758C43.108 161.262 42.9076 161.746 42.5509 162.103C42.1942 162.46 41.7104 162.66 41.206 162.66C40.7016 162.66 40.2178 162.46 39.8611 162.103C39.5044 161.746 39.304 161.262 39.304 160.758ZM84.688 160.846C84.688 160.342 84.8884 159.858 85.2451 159.501C85.6018 159.144 86.0856 158.944 86.59 158.944C87.0944 158.944 87.5782 159.144 87.9349 159.501C88.2916 159.858 88.492 160.342 88.492 160.846C88.492 161.35 88.2916 161.834 87.9349 162.191C87.5782 162.548 87.0944 162.748 86.59 162.748C86.0856 162.748 85.6018 162.548 85.2451 162.191C84.8884 161.834 84.688 161.35 84.688 160.846ZM44.808 163.458C45.2283 163.27 45.5571 162.924 45.7224 162.494C45.8877 162.065 45.876 161.587 45.69 161.166L44.846 159.258H48.166V174.218H41.468C40.6416 171.315 40.3842 168.279 40.71 165.278L44.808 163.458ZM58.692 163.826V159.416H66.596C67.004 159.416 69.476 159.888 69.476 161.736C69.476 163.272 67.576 163.824 66.016 163.824L58.692 163.826ZM47.9 187.568C47.9 187.318 47.9492 187.071 48.0448 186.84C48.1404 186.609 48.2805 186.4 48.4571 186.223C48.6337 186.046 48.8434 185.906 49.0741 185.811C49.3049 185.715 49.5522 185.666 49.802 185.666C50.0518 185.666 50.2991 185.715 50.5299 185.811C50.7606 185.906 50.9703 186.046 51.1469 186.223C51.3235 186.4 51.4636 186.609 51.5592 186.84C51.6548 187.071 51.704 187.318 51.704 187.568C51.704 188.072 51.5036 188.556 51.1469 188.913C50.7902 189.27 50.3064 189.47 49.802 189.47C49.2976 189.47 48.8138 189.27 48.4571 188.913C48.1004 188.556 47.9 188.072 47.9 187.568ZM76.086 187.656C76.086 187.152 76.2864 186.668 76.6431 186.311C76.9998 185.954 77.4836 185.754 77.988 185.754C78.4924 185.754 78.9762 185.954 79.3329 186.311C79.6896 186.668 79.89 187.152 79.89 187.656C79.89 188.16 79.6896 188.644 79.3329 189.001C78.9762 189.358 78.4924 189.558 77.988 189.558C77.4836 189.558 76.9998 189.358 76.6431 189.001C76.2864 188.644 76.086 188.16 76.086 187.656ZM76.674 183.342C75.734 183.142 74.814 183.738 74.614 184.676L73.66 189.132C70.5896 190.523 67.2553 191.234 63.8847 191.218C60.5142 191.202 57.1868 190.458 54.13 189.038L53.176 184.582C52.976 183.642 52.056 183.046 51.116 183.248L47.182 184.092C46.451 183.339 45.7715 182.538 45.148 181.694H64.288C64.504 181.694 64.648 181.654 64.648 181.458V174.688C64.648 174.488 64.504 174.452 64.288 174.452H58.688V170.16H64.742C65.294 170.16 67.696 170.32 68.466 173.388L69.596 178.388C69.956 179.488 71.422 181.694 72.982 181.694H82.862C82.1989 182.581 81.4738 183.42 80.692 184.204L76.674 183.342ZM87.302 165.466C87.4365 166.817 87.4532 168.178 87.352 169.532H84.952C84.712 169.532 84.612 169.692 84.612 169.926V171.03C84.612 173.63 83.148 174.19 81.864 174.336C80.644 174.476 79.284 173.824 79.12 173.076C78.4 169.02 77.2 168.156 75.32 166.656C77.674 165.16 80.124 162.956 80.124 160.002C80.124 156.814 77.938 154.806 76.448 153.822C74.358 152.442 72.044 152.168 71.42 152.168H46.55C49.9853 148.33 54.5904 145.731 59.652 144.774L62.582 147.848C63.242 148.542 64.342 148.568 65.034 147.904L68.314 144.77C71.6551 145.396 74.82 146.741 77.5888 148.713C80.3576 150.684 82.6641 153.235 84.348 156.188L82.104 161.256C81.918 161.677 81.9063 162.155 82.0716 162.584C82.2369 163.014 82.5657 163.36 82.986 163.548L87.302 165.466ZM92.898 165.546L92.822 164.762L95.134 162.606C95.604 162.166 95.428 161.286 94.828 161.062L91.874 159.958L91.642 159.198L93.482 156.638C93.858 156.118 93.512 155.288 92.882 155.184L89.766 154.678L89.392 153.978L90.702 151.104C90.97 150.518 90.472 149.77 89.828 149.794L86.668 149.904L86.168 149.298L86.894 146.218C87.04 145.592 86.406 144.958 85.78 145.104L82.7 145.83L82.092 145.33L82.202 142.17C82.226 141.53 81.478 141.03 80.894 141.296L78.022 142.606L77.322 142.23L76.814 139.114C76.714 138.482 75.88 138.138 75.36 138.514L72.8 140.354L72.04 140.124L70.936 137.17C70.712 136.57 69.83 136.394 69.392 136.862L67.236 139.174L66.452 139.098L64.788 136.408C64.452 135.864 63.548 135.864 63.214 136.408L61.55 139.098L60.766 139.174L58.606 136.858C58.166 136.39 57.286 136.564 57.062 137.166L55.958 140.12L55.198 140.35L52.638 138.51C52.118 138.134 51.286 138.48 51.184 139.11L50.676 142.226L49.976 142.602L47.104 141.292C46.52 141.026 45.77 141.526 45.796 142.166L45.906 145.326L45.298 145.826L42.218 145.1C41.592 144.954 40.958 145.588 41.104 146.214L41.83 149.294L41.33 149.9L38.17 149.79C37.53 149.77 37.03 150.514 37.296 151.1L38.606 153.974L38.23 154.674L35.114 155.18C34.482 155.28 34.138 156.114 34.514 156.634L36.354 159.194L36.122 159.954L33.168 161.058C32.568 161.282 32.392 162.164 32.862 162.602L35.174 164.758L35.098 165.542L32.408 167.206C31.864 167.542 31.864 168.446 32.408 168.78L35.098 170.444L35.174 171.228L32.856 173.392C32.388 173.832 32.562 174.712 33.162 174.936L36.116 176.04L36.348 176.8L34.508 179.36C34.134 179.88 34.478 180.712 35.108 180.814L38.222 181.32L38.598 182.02L37.288 184.892C37.022 185.476 37.524 186.226 38.162 186.202L41.322 186.092L41.822 186.7L41.096 189.78C40.95 190.404 41.584 191.04 42.21 190.892L45.29 190.166L45.898 190.666L45.788 193.826C45.764 194.466 46.512 194.966 47.096 194.7L49.968 193.39L50.668 193.766L51.176 196.88C51.276 197.514 52.11 197.856 52.63 197.484L55.19 195.64L55.95 195.872L57.054 198.826C57.278 199.426 58.16 199.602 58.598 199.132L60.754 196.82L61.538 196.9L63.202 199.59C63.538 200.13 64.438 200.134 64.776 199.59L66.44 196.9L67.224 196.82L69.38 199.132C69.82 199.602 70.7 199.426 70.924 198.826L72.028 195.872L72.788 195.64L75.348 197.484C75.868 197.858 76.7 197.514 76.802 196.88L77.31 193.766L78.01 193.39L80.882 194.7C81.466 194.966 82.214 194.468 82.19 193.826L82.08 190.666L82.686 190.166L85.766 190.892C86.392 191.038 87.026 190.404 86.88 189.78L86.154 186.7L86.654 186.092L89.814 186.202C90.454 186.228 90.954 185.476 90.688 184.892L89.378 182.02L89.752 181.32L92.868 180.814C93.502 180.714 93.848 179.882 93.468 179.36L91.628 176.8L91.86 176.04L94.814 174.936C95.414 174.71 95.59 173.83 95.12 173.392L92.808 171.236L92.884 170.452L95.574 168.788C96.118 168.452 96.12 167.552 95.574 167.214L92.898 165.546Z" fill="black"></path></svg> 